Snooki & JwoWW Season 2 Episode 6 - The Honeymoon Is Over

Format                           : AVI
Format/Info                      : Audio Video Interleave
File size                        : 619 MiB
Duration                         : 40mn 17s
Overall bit rate                 : 2 149 Kbps

Video
ID                               : 0
Format                           : mp43
Codec ID                         : mp43
Duration                         : 40mn 17s
Bit rate                         : 2 002 Kbps
Width                            : 960 pixels
Height                           : 540 pixels
Display aspect ratio             : 16:9
Frame rate                       : 29.970 fps
Bits/(Pixel*Frame)               : 0.129
Stream size                      : 577 MiB (93%)

Audio
ID                               : 1
Format                           : MPEG Audio
Codec ID                         : 55
Codec ID/Hint                    : MP3
Duration                         : 40mn 17s
Bit rate                         : 128 Kbps
Channel(s)                       : 2 channels
Sampling rate                    : 48.0 KHz
Compression mode                 : Lossy
Stream size                      : 36.9 MiB (6%)
Alignment                        : Aligned on interleaves
Interleave, duration             : 24 ms (0.72 video frame)